# xmcd CD database file generated by Grip 3.0.0
# 
# Track frame offsets:
#       150
#       19872
#       41435
#       56797
#       75660
#       92305
#       112945
#       129405
# 
# Disc length: 2038 seconds
# 
# Revision: 2
# Processed by: cddbd v1.4PL0 Copyright (c) Steve Scherf et al.
# Submitted via: Grip 3.0.0
# 
DISCID=5607f408
DTITLE=B. B. King - Six Silver Strings
DYEAR=1985
DGENRE=Blues
TTITLE0=Six Silver Strings
TTITLE1=Big Boss Man
TTITLE2=In The Midnight Hour
TTITLE3=Into The Night
TTITLE4=My Lucille
TTITLE5=Memory Lane
TTITLE6=My Guitar Sings The Blues
TTITLE7=Double Trouble
EXTD=
EXTT0=
EXTT1=
EXTT2=
EXTT3=
EXTT4=
EXTT5=
EXTT6=
EXTT7=
PLAYORDER=
